<svg xmlns="http://www.w3.org/2000/svg" width="32.273" height="32.273" viewBox="0 0 32.273 32.273"><defs><style>.a{fill:#d9d0ea;}</style></defs><path class="a" d="M18.942,4.8a15.488,15.488,0,0,0,6.242-1.27A16.525,16.525,0,0,0,30.331.033,16.435,16.435,0,0,0,33.817-5.1a15.517,15.517,0,0,0,1.262-6.234,15.517,15.517,0,0,0-1.262-6.234,16.465,16.465,0,0,0-3.495-5.146,16.438,16.438,0,0,0-5.155-3.495,15.576,15.576,0,0,0-6.242-1.262,15.494,15.494,0,0,0-6.209,1.262,16.438,16.438,0,0,0-5.155,3.495,16.465,16.465,0,0,0-3.495,5.146,15.517,15.517,0,0,0-1.262,6.234A15.43,15.43,0,0,0,4.076-5.1,16.553,16.553,0,0,0,7.57.033a16.525,16.525,0,0,0,5.146,3.495A15.447,15.447,0,0,0,18.942,4.8Zm0-2.972A12.881,12.881,0,0,1,13.829.805,13.2,13.2,0,0,1,9.637-2.017,13.085,13.085,0,0,1,6.823-6.209a13.014,13.014,0,0,1-1.013-5.13,12.972,12.972,0,0,1,1.013-5.113,13.182,13.182,0,0,1,2.814-4.2,13.157,13.157,0,0,1,4.184-2.831,12.821,12.821,0,0,1,5.1-1.021,12.9,12.9,0,0,1,5.138,1.021,13.254,13.254,0,0,1,4.192,2.831,13.229,13.229,0,0,1,2.831,4.2,12.881,12.881,0,0,1,1.021,5.113,12.635,12.635,0,0,1-1.013,5.13,13.384,13.384,0,0,1-2.822,4.192A13.1,13.1,0,0,1,24.089.805,12.964,12.964,0,0,1,18.942,1.826ZM15.39-3.586a1.149,1.149,0,0,0,.888.315,1.256,1.256,0,0,0,.888-.349l6.458-6.093a2.1,2.1,0,0,0,.7-1.6,2.1,2.1,0,0,0-.7-1.6l-6.458-6.093a1.292,1.292,0,0,0-.88-.365,1.146,1.146,0,0,0-.863.315,1.25,1.25,0,0,0-.407.913,1.115,1.115,0,0,0,.374.88L21.7-11.322,15.39-5.379a1.14,1.14,0,0,0-.382.88A1.246,1.246,0,0,0,15.39-3.586Z" transform="translate(-2.806 27.476)"/></svg>